<svg width="168" height="139" viewBox="0 0 168 139" fill="none" xmlns="http://www.w3.org/2000/svg">
<path d="M153.592 0.066914L167.866 11.8275L150.544 18.3086L153.592 0.066914ZM1.19585 135.42C0.342223 135.188 -0.16174 134.308 0.0702116 133.454C0.302177 132.601 1.18221 132.097 2.03584 132.329L1.19585 135.42ZM160.205 13.2125C164.739 33.3564 157.948 55.156 145.468 69.3813C139.216 76.5082 131.474 81.8052 122.915 83.999C114.326 86.2007 105.013 85.248 95.7482 80.0316L97.3198 77.2402C105.878 82.0587 114.344 82.8891 122.12 80.8959C129.927 78.8948 137.139 74.0189 143.06 67.2688C154.929 53.74 161.368 32.9689 157.08 13.9159L160.205 13.2125ZM95.7482 80.0316C89.4456 76.4831 84.7631 73.1306 81.4003 70.0455C78.0472 66.9694 75.9461 64.104 74.9012 61.516C73.8487 58.909 73.8443 56.4987 74.8496 54.5422C75.8478 52.5994 77.6988 51.384 79.7937 50.8683C83.9541 49.844 89.4127 51.441 93.3555 55.9874C97.3395 60.5814 99.7193 68.0757 98.1183 78.8708L94.9496 78.4009C96.4517 68.2726 94.1548 61.7986 90.9354 58.0862C87.6746 54.3262 83.4031 53.2787 80.5595 53.9787C79.1524 54.3251 78.1829 55.0641 77.6989 56.0061C77.2219 56.9344 77.0734 58.3396 77.8717 60.3168C78.6776 62.3131 80.422 64.8008 83.5659 67.685C86.7 70.5604 91.1659 73.7755 97.3198 77.2402L95.7482 80.0316ZM98.1183 78.8708C95.8399 94.2345 84.0506 111.732 66.7384 123.687C49.3718 135.68 26.2605 142.231 1.19585 135.42L2.03584 132.329C26.042 138.852 48.1922 132.602 64.9181 121.051C81.6984 109.463 92.8329 92.6742 94.9496 78.4009L98.1183 78.8708Z" fill="url(#paint0_linear_6_163)"/>
<defs>
<linearGradient id="paint0_linear_6_163" x1="97.1187" y1="76.5492" x2="1.02548" y2="133.716" gradientUnits="userSpaceOnUse">
<stop stop-color="#F79E0E"/>
<stop offset="0.896395" stop-color="white" stop-opacity="0"/>
</linearGradient>
</defs>
</svg>
