<svg width="120" height="159" viewBox="0 0 120 159" fill="none" xmlns="http://www.w3.org/2000/svg">
<path d="M0 146.5L13.8437 158.764L17.5427 140.643L0 146.5ZM115.544 1.57531C115.31 0.722392 114.428 0.221103 113.575 0.455649C112.722 0.690208 112.221 1.57178 112.456 2.4247L115.544 1.57531ZM14.006 150.98C32.3922 152.308 51.6075 145.249 64.4893 133.44C77.4067 121.598 84.115 104.782 76.8562 86.8251L73.8863 88.0257C80.5159 104.426 74.5359 119.884 62.3246 131.079C50.0777 142.306 31.7238 149.048 14.2367 147.785L14.006 150.98ZM76.8562 86.8251C74.3626 80.6564 71.8646 76.0554 69.4541 72.7362C67.0533 69.4305 64.6777 67.3116 62.3978 66.2391C60.0723 65.1452 57.829 65.1434 55.9498 66.1225C54.122 67.0748 52.8742 68.8316 52.2067 70.8144C50.8761 74.7662 51.6545 80.1342 55.3893 84.1092C59.1757 88.139 65.7542 90.5059 75.6117 89.0089L75.1308 85.8419C65.9711 87.2329 60.5798 84.9552 57.7239 81.9156C54.8164 78.8213 54.2801 74.6953 55.2426 71.8365C55.7216 70.4139 56.5223 69.4363 57.4299 68.9634C58.2862 68.5173 59.4652 68.3997 61.0342 69.1378C62.6487 69.8973 64.6395 71.5582 66.8621 74.6186C69.075 77.6656 71.4574 82.0171 73.8863 88.0257L76.8562 86.8251ZM75.8072 88.9666C95.5512 83.3824 108.369 71.7109 114.776 56.2281C121.158 40.8078 121.105 21.7962 115.544 1.57531L112.456 2.4247C117.895 22.2038 117.842 40.4422 111.816 55.0032C105.816 69.5018 93.8201 80.543 74.9354 85.8842L75.8072 88.9666Z" fill="url(#paint0_linear_6_164)"/>
<defs>
<linearGradient id="paint0_linear_6_164" x1="73.4448" y1="87.9814" x2="137.83" y2="-3.12207" gradientUnits="userSpaceOnUse">
<stop stop-color="#F79E0E"/>
<stop offset="0.896395" stop-color="white" stop-opacity="0"/>
</linearGradient>
</defs>
</svg>
